<?xml version="1.0" encoding="UTF-8"?>
<svg width="67px" height="67px" viewBox="0 0 67 67" version="1.1" xmlns="http://www.w3.org/2000/svg" xmlns:xlink="http://www.w3.org/1999/xlink">
    <!-- Generator: Sketch 59.1 (86144) - https://sketch.com -->
    <title>Group 11</title>
    <desc>Created with Sketch.</desc>
    <g id="Page-2" stroke="none" stroke-width="1" fill="none" fill-rule="evenodd">
        <g id="Group-11">
            <path d="M33.5,0 C52.0015391,0 67,14.9984609 67,33.5 C67,52.0015391 52.0015391,67 33.5,67 C14.9984609,67 0,52.0015391 0,33.5 C0,14.9984609 14.9984609,0 33.5,0 Z M33.5,6.5 C18.5883118,6.5 6.5,18.5883118 6.5,33.5 C6.5,48.4116882 18.5883118,60.5 33.5,60.5 C48.4116882,60.5 60.5,48.4116882 60.5,33.5 C60.5,18.5883118 48.4116882,6.5 33.5,6.5 Z" id="Combined-Shape-Copy-2" fill="#FFFFFF"></path>
            <polyline id="Line-6" stroke="#FFFFFF" stroke-width="5" stroke-linecap="square" points="22.5 32 33.5 43 44.5 32"></polyline>
        </g>
    </g>
</svg>