<?xml version="1.0" encoding="UTF-8"?>
<svg width="145px" height="114px" viewBox="0 0 145 114" version="1.1" xmlns="http://www.w3.org/2000/svg" xmlns:xlink="http://www.w3.org/1999/xlink">
    <!-- Generator: Sketch 59.1 (86144) - https://sketch.com -->
    <title>002-augmented-reality</title>
    <desc>Created with Sketch.</desc>
    <g id="Page-2" stroke="none" stroke-width="1" fill="none" fill-rule="evenodd">
        <g id="Artboard-Copy" transform="translate(-826.000000, -654.000000)" fill="#32C5FF" fill-rule="nonzero">
            <g id="002-augmented-reality" transform="translate(826.000000, 654.000000)">
                <path d="M34.7959016,18.5162955 C33.7194489,18.5162955 33.0849382,18.8497519 32.6983809,19.4996833 C31.3464245,21.8163825 30.0768352,24.4831768 28.6970443,26.833153 L24.6127726,19.4833879 C24.2540497,18.833285 23.5084855,18.5 22.4047665,18.5 C20.9420405,18.5 20.1970443,18.9500976 20.1970443,19.8333113 C20.1970443,19.9998681 20.2521451,20.1832348 20.3347962,20.3666016 L26.1857001,30.1666887 C26.7100092,31.0500739 27.5379405,31.5 28.669494,31.5 C29.8839826,31.5 30.7667306,31.0166253 31.3464245,30.0332375 L37.0039077,20.3997071 C37.1141092,20.2662559 37.1970443,20.0830606 37.1970443,19.9163324 C37.1970443,19.1995039 35.927455,18.5162955 34.7959016,18.5162955 Z" id="Path-Copy"></path>
                <path d="M34.7959016,27.0162955 C33.7194489,27.0162955 33.0849382,27.3497519 32.6983809,27.9996833 C31.3464245,30.3163825 30.0768352,32.9831768 28.6970443,35.333153 L24.6127726,27.9833879 C24.2540497,27.333285 23.5084855,27 22.4047665,27 C20.9420405,27 20.1970443,27.4500976 20.1970443,28.3333113 C20.1970443,28.4998681 20.2521451,28.6832348 20.3347962,28.8666016 L26.1857001,38.6666887 C26.7100092,39.5500739 27.5379405,40 28.669494,40 C29.8839826,40 30.7667306,39.5166253 31.3464245,38.5332375 L37.0039077,28.8997071 C37.1141092,28.7662559 37.1970443,28.5830606 37.1970443,28.4163324 C37.1970443,27.6995039 35.927455,27.0162955 34.7959016,27.0162955 Z" id="Path-Copy-2" transform="translate(28.697044, 33.500000) scale(1, -1) translate(-28.697044, -33.500000) "></path>
                <path d="M50.4253104,30.5887082 C52.6711496,29.1534244 53.6970443,27.0281932 53.6970443,24.9307985 C53.6970443,21.6463761 51.1187525,18.5 46.4601344,18.5 L40.9422759,18.5 C39.1398973,18.5 38.1973297,19.2174999 38.1973297,20.7908299 L38.1970443,20.7908299 L38.1970443,37.5438554 C38.1970443,39.1722903 38.9458476,39.9727316 40.4431689,39.9727316 C41.9128095,39.9727316 42.6336468,39.1722903 42.6336468,37.5438554 L42.6336468,31.7203469 L45.8500195,31.7203469 L49.3437691,38.7857039 C49.8428761,39.7517439 50.5916794,40 51.367878,40 C52.809838,40 53.4753141,39.1166173 53.4753141,37.8747688 C53.4753141,37.4058091 53.3089451,36.9090128 53.1148954,36.4397691 L50.4253104,30.5887082 Z M46.6544694,27.3318382 L42.6339322,27.3318382 L42.6339322,22.9160611 L46.6544694,22.9160611 C48.4012015,22.9160611 49.1500048,23.9096536 49.1500048,24.9307985 C49.1500048,26.0899897 48.2071519,27.3318382 46.6544694,27.3318382 Z" id="Shape"></path>
                <path d="M144.641491,76.3453453 L142.286878,60.795513 C141.918855,58.3649541 139.863401,56.6006798 137.399849,56.6006798 L130.258397,56.6006798 C127.606036,50.2549244 121.524908,45.7269489 114.388537,45.2521578 C114.089941,45.2321636 113.791346,45.212451 113.492468,45.1924569 C98.1777464,44.173599 82.2390224,41.7627526 66.9082135,42.7827369 C66.4058509,42.8162483 65.9037705,42.849478 65.4014079,42.8829894 C67.100974,39.0919821 68.0484073,34.894896 68.0484073,30.4804085 C68.0484073,13.673478 54.3449147,0 37.5013734,0 C25.9241729,0 15.478135,6.40489306 10.2397346,16.7154079 C9.70943164,17.7593289 10.1274086,19.0347317 11.1739033,19.5638731 C12.2198336,20.0930146 13.4983182,19.6759531 14.0286212,18.6317506 C18.5394424,9.75377577 27.5334267,4.23848248 37.5013734,4.23848248 C52.0027195,4.23848248 63.8006209,16.0102614 63.8006209,30.4801269 C63.8006209,35.0962457 62.5986196,39.4369519 60.4923655,43.2093731 C50.2571505,43.8903013 40.0216533,44.5709479 29.7864383,45.2518762 C25.8361183,45.5146164 22.2106407,47.0220642 19.3093555,49.389543 C14.7440646,45.0226472 11.7338401,39.0342524 11.2664735,32.33001 C11.1849102,31.1621815 10.170307,30.2821564 9.00019722,30.3629779 C7.83008744,30.4443627 6.94728392,31.4564619 7.02884729,32.6242904 C7.5549169,40.1736385 10.85527,47.1972244 16.330458,52.4503406 C15.3564955,53.7139159 14.541144,55.106186 13.9165774,56.6006798 L7.49423827,56.6006798 C5.03068586,56.6006798 2.97551475,58.3649541 2.60720957,60.795513 L0.252596471,76.3453453 C0.0375401141,77.7674659 0.452977065,79.207891 1.3930725,80.2979956 C2.33288572,81.3881003 3.69857825,82.0132702 5.13962517,82.0132702 L10.0111314,82.0132702 L8.58786476,93.1849424 C7.91701311,98.4490413 9.54884494,103.752284 13.0642544,107.734221 C16.5796638,111.716159 21.6461883,114 26.9644587,114 L41.7361774,114 C45.3088788,114 48.8316261,113.40637 52.2064868,112.235726 L71.3496071,105.59569 L72.8248034,105.59569 L91.9679236,112.235726 C93.0762258,112.620402 94.2864117,112.035784 94.6716505,110.929909 C95.0568892,109.824316 94.4709877,108.616499 93.3629676,108.232104 L73.8808938,101.474356 C73.6565239,101.396633 73.4208651,101.356926 73.1835128,101.356926 L70.9908976,101.356926 C70.7535454,101.356926 70.5176043,101.396633 70.2935167,101.474356 L50.811725,108.232104 C47.8864506,109.246738 44.8330454,109.761236 41.7361774,109.761236 L26.9644587,109.761236 C22.8656877,109.761236 18.9610884,108.001186 16.2517169,104.932221 C13.5423455,101.863539 12.2847456,97.7765613 12.801784,93.7194344 L14.5259038,80.185634 L17.469523,59.215692 C19.267586,53.8121971 24.2051332,49.8710927 30.0686645,49.4810656 C42.2560381,48.670316 54.4434116,47.8595665 66.6305029,47.0490986 C82.1453233,46.0170052 98.3789737,48.4351733 113.982695,49.4728989 C114.023618,49.475715 114.064823,49.4782495 114.105746,49.4810656 C120.902881,49.9333281 126.459633,55.1554674 127.318729,61.8985717 L131.372626,93.7191528 C131.889383,97.7762797 130.632065,101.863257 127.922693,104.93194 C125.213322,108.000904 121.308723,109.760954 117.209952,109.760954 L108.035907,109.760954 C106.862975,109.760954 105.911873,110.709973 105.911873,111.880336 C105.911873,113.050699 106.862693,114 108.035907,114 L117.210516,114 C122.528787,114 127.595311,111.715877 131.110721,107.73394 C134.62613,103.752002 136.257962,98.4490413 135.58711,93.1846608 L134.163843,82.0129886 L139.754744,82.0129886 C141.195791,82.0129886 142.561484,81.3878187 143.501297,80.297714 C144.44111,79.2081726 144.856547,77.7674659 144.641491,76.3453453 Z M12.6423262,61.3643613 L10.5515946,77.7747877 L5.1399074,77.7747877 L5.1399074,77.7750693 C4.86276128,77.7750693 4.69116776,77.6241274 4.61355555,77.5340128 C4.53594335,77.4441799 4.41176383,77.2521232 4.45325108,76.9786818 L6.80786418,61.4288495 C6.85951157,61.087259 7.14822897,60.8394439 7.4945205,60.8394439 L12.7210673,60.8394439 C12.6936914,61.0140409 12.6646221,61.1880746 12.6423262,61.3643613 Z M140.280814,77.5340128 C140.203202,77.6241274 140.031608,77.7750693 139.754462,77.7750693 L134.319068,77.7750693 L131.941594,60.8397255 L137.399849,60.8397255 C137.745858,60.8397255 138.034576,61.0875406 138.086505,61.4291311 L140.441118,76.9786818 C140.482606,77.2521232 140.358426,77.4438982 140.280814,77.5340128 Z" id="Shape"></path>
                <path d="M79.5805673,56.5 L61.8135214,56.5 C60.6444814,56.5 59.6970443,57.3952963 59.6970443,58.5 C59.6970443,59.6047037 60.6447626,60.5 61.8135214,60.5 L79.5805673,60.5 C80.7493261,60.5 81.6970443,59.6047037 81.6970443,58.5 C81.6970443,57.3952963 80.7493261,56.5 79.5805673,56.5 Z" id="Path"></path>
                <path d="M107.688798,69.7430311 C106.928318,68.8529058 105.58966,68.7475555 104.699288,69.5081056 L94.4402817,78.2682342 C93.5499093,79.0285026 93.4445298,80.3667891 94.205291,81.2569144 C94.6248367,81.7478917 95.2199211,82 95.8186683,82 C96.3058373,82 96.7955421,81.8329607 97.1948009,81.4918399 L107.453807,72.7317113 C108.344179,71.9714429 108.449559,70.6331564 107.688798,69.7430311 Z" id="Path"></path>
                <path d="M118.686464,73.7396399 C117.922492,72.8535771 116.57797,72.7487077 115.683226,73.5057866 L89.9436947,95.2852659 C89.0492336,96.0420645 88.9433702,97.374243 89.7076249,98.2603058 C90.1290972,98.7490423 90.7269142,99 91.3284109,99 C91.817817,99 92.3097705,98.833723 92.7108627,98.4941591 L118.450394,76.7146798 C119.344855,75.9578813 119.450718,74.6257027 118.686464,73.7396399 Z" id="Path"></path>
                <path d="M44.1887878,69.7430311 C43.4282935,68.8529058 42.0898913,68.7475555 41.1992198,69.5081056 L30.9402961,78.2682342 C30.0499064,79.0285026 29.9445249,80.3667891 30.7053009,81.2569144 C31.1248548,81.7478917 31.7199507,82 32.3187096,82 C32.805888,82 33.2956023,81.8329607 33.6948689,81.4918399 L43.9537925,72.7317113 C44.8441822,71.9714429 44.9495638,70.6331564 44.1887878,69.7430311 Z" id="Path"></path>
                <path d="M54.6864638,73.7396399 C53.9224922,72.8535771 52.577687,72.7487077 51.683226,73.5057866 L25.9436947,95.2852659 C25.0492336,96.0420645 24.9433702,97.374243 25.7076249,98.2603058 C26.1290972,98.7490423 26.7269142,99 27.3284109,99 C27.817817,99 28.3097705,98.833723 28.7108627,98.4941591 L54.450394,76.7146798 C55.344855,75.9578813 55.4507184,74.6257027 54.6864638,73.7396399 Z" id="Path"></path>
            </g>
        </g>
    </g>
</svg>